<svg xmlns="http://www.w3.org/2000/svg" version="1.1" xmlns:xlink="http://www.w3.org/1999/xlink" xmlns:svgjs="http://svgjs.dev/svgjs" width="1500" height="1500" viewBox="0 0 1500 1500"><rect width="1500" height="1500" fill="#ffffff"></rect><g transform="matrix(0.6666666666666666,0,0,0.6666666666666666,249.39393939393938,438.5856950067477)"><svg viewBox="0 0 396 247" data-background-color="#ffffff" preserveAspectRatio="xMidYMid meet" height="935" width="1500" xmlns="http://www.w3.org/2000/svg" xmlns:xlink="http://www.w3.org/1999/xlink"><g id="tight-bounds" transform="matrix(1,0,0,1,0.2400000000000091,-0.09999999999999432)"><svg viewBox="0 0 395.52 247.2" height="247.2" width="395.52"><g><svg></svg></g><g><svg viewBox="0 0 395.52 247.2" height="247.2" width="395.52"><g transform="matrix(1,0,0,1,108.77996344688437,47.215199999999996)"><svg viewBox="0 0 177.96007310623125 152.7696" height="152.7696" width="177.96007310623125"><g><svg viewBox="0 0 177.96007310623125 152.7696" height="152.7696" width="177.96007310623125"><g><svg viewBox="0 0 244.43135999999998 209.83179228278524" height="152.7696" width="177.96007310623125"><g><svg viewBox="0 0 244.43135999999998 209.83179228278524" height="209.83179228278524" width="244.43135999999998"><g id="textblocktransform"><svg viewBox="0 0 244.43135999999998 209.83179228278524" height="209.83179228278524" width="244.43135999999998" id="textblock"><g><svg viewBox="0 0 244.43135999999998 144.29076177339903" height="144.29076177339903" width="244.43135999999998"><g transform="matrix(1,0,0,1,0,0)"><svg width="244.43135999999998" viewBox="4.44 -35.11 59.47 35.11" height="144.29076177339903" data-palette-color="#e6b17e"><path d="M27.88-21.17L27.88-35.11 32.47-35.11 32.47 0 27.88 0 27.88-17.41 9.03-17.41 9.03 0 4.44 0 4.44-35.11 9.03-35.11 9.03-21.17 27.88-21.17ZM41.43-35.11L52.41-35.11Q54.83-35.11 56.93-34.58 59.03-34.06 60.58-32.87 62.13-31.69 63.02-29.79 63.91-27.88 63.91-25.15L63.91-25.15Q63.91-22.09 62.89-20.17 61.86-18.24 60.12-17.11 58.37-15.99 56.06-15.58 53.76-15.16 51.19-15.16L51.19-15.16Q49.8-15.16 48.47-15.26 47.14-15.36 45.97-15.48L45.97-15.48 45.97 0 41.43 0 41.43-35.11ZM45.97-31.45L45.97-19.14Q47.14-18.99 48.42-18.91 49.7-18.82 51-18.82L51-18.82Q52.85-18.82 54.4-19.06 55.95-19.29 57.05-19.97 58.15-20.65 58.76-21.9 59.37-23.14 59.37-25.15L59.37-25.15Q59.37-26.98 58.86-28.19 58.35-29.39 57.43-30.13 56.52-30.86 55.23-31.15 53.95-31.45 52.41-31.45L52.41-31.45 45.97-31.45Z" opacity="1" transform="matrix(1,0,0,1,0,0)" fill="#e6b17e" class="wordmark-text-0" data-fill-palette-color="primary" id="text-0"></path></svg></g></svg></g><g transform="matrix(1,0,0,1,0,178.35434764981596)"><svg viewBox="0 0 244.43135999999998 31.47744463296927" height="31.47744463296927" width="244.43135999999998"><g transform="matrix(1,0,0,1,0,0)"><svg width="244.43135999999998" viewBox="0.9 -38.9 393.67 50.7" height="31.47744463296927" data-palette-color="#c56e33"><path d="M31.9-8.2L34.1-8.2 34.1 0 18.3 0 18.3-8.2 20.4-8.2 20.4-16.4Q20.4-18.05 19.7-18.82 19-19.6 17.6-19.6L17.6-19.6Q14.6-19.6 14.6-16.4L14.6-16.4 14.6-8.2 16.7-8.2 16.7 0 0.9 0 0.9-8.2 3.1-8.2 3.1-30.7 0.9-30.7 0.9-38.9 14.6-38.9 14.6-23.9Q16.45-26.2 18.6-27.35 20.75-28.5 23.6-28.5L23.6-28.5Q27.75-28.5 29.83-25.9 31.9-23.3 31.9-18.75L31.9-18.75 31.9-8.2ZM50.6 0.7Q43.5 0.7 39.5-3.03 35.5-6.75 35.5-13.9L35.5-13.9Q35.5-21.05 39.5-24.78 43.5-28.5 50.6-28.5L50.6-28.5Q57.65-28.5 60.77-24.83 63.9-21.15 63.9-15.7L63.9-15.7 63.9-12.1 47.7-12.1 47.7-11.8Q47.7-9.95 48.8-9.08 49.9-8.2 52.45-8.2L52.45-8.2Q55.5-8.2 58.25-8.65 61-9.1 63.05-9.8L63.05-9.8 63.05-1.8Q61.3-0.85 57.92-0.08 54.55 0.7 50.6 0.7L50.6 0.7ZM47.7-17.6L53.5-17.6 53.5-18.2Q53.5-19.9 52.77-20.65 52.05-21.4 50.6-21.4L50.6-21.4Q49.15-21.4 48.42-20.63 47.7-19.85 47.7-18.2L47.7-18.2 47.7-17.6ZM113.7-8.2L115.9-8.2 115.9 0 100.09 0 100.09-8.2 102.2-8.2 102.2-16.4Q102.2-18.05 101.5-18.82 100.8-19.6 99.4-19.6L99.4-19.6Q96.4-19.6 96.4-16.4L96.4-16.4 96.4-8.2 98.5-8.2 98.5 0 82.8 0 82.8-8.2 84.9-8.2 84.9-16.4Q84.9-18.05 84.2-18.82 83.5-19.6 82.09-19.6L82.09-19.6Q79.09-19.6 79.09-16.4L79.09-16.4 79.09-8.2 81.2-8.2 81.2 0 65.4 0 65.4-8.2 67.59-8.2 67.59-19.6 65.4-19.6 65.4-27.8 79.09-27.8 79.09-23.9Q82.7-28.5 88.09-28.5L88.09-28.5Q91.15-28.5 93.07-27.08 95-25.65 95.8-23.05L95.8-23.05Q97.59-25.65 99.92-27.05 102.25-28.45 105.4-28.45L105.4-28.45Q109.55-28.45 111.62-25.85 113.7-23.25 113.7-18.7L113.7-18.7 113.7-8.2ZM144.44-8.2L146.64-8.2 146.64 0 133.44 0 133.44-3.4Q132.34-1.8 130.37-0.55 128.39 0.7 125.54 0.7L125.54 0.7Q121.79 0.7 119.64-1.3 117.49-3.3 117.49-6.95L117.49-6.95Q117.49-16.4 133.54-16.65L133.54-16.65Q133.39-18.35 132.24-18.98 131.09-19.6 128.34-19.6L128.34-19.6Q126.09-19.6 123.52-19.13 120.94-18.65 118.79-17.85L118.79-17.85 118.79-27.05Q121.44-27.7 124.54-28.1 127.64-28.5 130.59-28.5L130.59-28.5Q138.04-28.5 141.24-25.8 144.44-23.1 144.44-17.45L144.44-17.45 144.44-8.2ZM133.44-11.4L133.44-11.7Q131.19-11.7 129.97-11.1 128.74-10.5 128.74-9.1L128.74-9.1Q128.74-8.25 129.27-7.73 129.79-7.2 130.74-7.2L130.74-7.2Q132.04-7.2 132.74-8.3 133.44-9.4 133.44-11.4L133.44-11.4ZM179.24-8.2L181.44-8.2 181.44 0 165.64 0 165.64-8.2 167.74-8.2 167.74-16.4Q167.74-18.05 167.04-18.82 166.34-19.6 164.94-19.6L164.94-19.6Q161.94-19.6 161.94-16.4L161.94-16.4 161.94-8.2 164.04-8.2 164.04 0 148.24 0 148.24-8.2 150.44-8.2 150.44-19.6 148.24-19.6 148.24-27.8 161.94-27.8 161.94-23.9Q165.54-28.5 170.94-28.5L170.94-28.5Q175.09-28.5 177.17-25.9 179.24-23.3 179.24-18.75L179.24-18.75 179.24-8.2ZM195.39 0.7Q190.09 0.7 187.41-1.88 184.74-4.45 184.74-10.55L184.74-10.55 184.74-19.6 182.54-19.6 182.54-27.8Q184.44-27.8 185.39-28.78 186.34-29.75 186.34-31.45L186.34-31.45 186.34-33.7 196.94-33.7 196.94-27.8 203.69-27.8 203.69-19.6 196.94-19.6 196.94-11.4Q196.94-9.75 197.66-8.97 198.39-8.2 199.84-8.2L199.84-8.2Q201.74-8.2 203.99-8.65L203.99-8.65 203.99-0.8Q202.59-0.25 200.21 0.23 197.84 0.7 195.39 0.7L195.39 0.7ZM236.59-8.2L238.79-8.2 238.79 0 222.99 0 222.99-8.2 225.09-8.2 225.09-16.4Q225.09-18.05 224.39-18.82 223.69-19.6 222.29-19.6L222.29-19.6Q219.29-19.6 219.29-16.4L219.29-16.4 219.29-8.2 221.39-8.2 221.39 0 205.59 0 205.59-8.2 207.79-8.2 207.79-30.7 205.59-30.7 205.59-38.9 219.29-38.9 219.29-23.9Q221.14-26.2 223.29-27.35 225.44-28.5 228.29-28.5L228.29-28.5Q232.44-28.5 234.51-25.9 236.59-23.3 236.59-18.75L236.59-18.75 236.59-8.2ZM240.18 11.1L240.18 2.9 242.38 2.9 242.38-19.6 240.18-19.6 240.18-27.8 253.88-27.8 253.88-24.4Q255.13-26 257.11-27.25 259.08-28.5 261.63-28.5L261.63-28.5Q266.73-28.5 269.31-24.7 271.88-20.9 271.88-13.9L271.88-13.9Q271.88-6.9 269.31-3.1 266.73 0.7 261.63 0.7L261.63 0.7Q259.08 0.7 257.11-0.55 255.13-1.8 253.88-3.4L253.88-3.4 253.88 2.9 257.33 2.9 257.33 11.1 240.18 11.1ZM256.78-8.2Q258.23-8.2 258.96-8.97 259.68-9.75 259.68-11.4L259.68-11.4 259.68-16.4Q259.68-18.05 258.96-18.82 258.23-19.6 256.78-19.6L256.78-19.6Q255.33-19.6 254.61-18.82 253.88-18.05 253.88-16.4L253.88-16.4 253.88-11.4Q253.88-9.75 254.61-8.97 255.33-8.2 256.78-8.2L256.78-8.2ZM294.63-28.5Q295.63-28.5 296.53-28.3 297.43-28.1 298.03-27.8L298.03-27.8 298.03-18.25Q295.98-19.1 293.63-19.1L293.63-19.1Q290.48-19.1 288.78-17.45 287.08-15.8 287.08-12.55L287.08-12.55 287.08-8.2 291.58-8.2 291.58 0 273.38 0 273.38-8.2 275.58-8.2 275.58-19.6 273.38-19.6 273.38-27.8 287.08-27.8 287.08-24.15Q288.48-26.25 290.28-27.38 292.08-28.5 294.63-28.5L294.63-28.5ZM326.58-8.2L328.78-8.2 328.78 0 315.58 0 315.58-3.4Q314.48-1.8 312.5-0.55 310.53 0.7 307.68 0.7L307.68 0.7Q303.93 0.7 301.78-1.3 299.63-3.3 299.63-6.95L299.63-6.95Q299.63-16.4 315.68-16.65L315.68-16.65Q315.53-18.35 314.38-18.98 313.23-19.6 310.48-19.6L310.48-19.6Q308.23-19.6 305.65-19.13 303.08-18.65 300.93-17.85L300.93-17.85 300.93-27.05Q303.58-27.7 306.68-28.1 309.78-28.5 312.73-28.5L312.73-28.5Q320.18-28.5 323.38-25.8 326.58-23.1 326.58-17.45L326.58-17.45 326.58-8.2ZM315.58-11.4L315.58-11.7Q313.33-11.7 312.1-11.1 310.88-10.5 310.88-9.1L310.88-9.1Q310.88-8.25 311.4-7.73 311.93-7.2 312.88-7.2L312.88-7.2Q314.18-7.2 314.88-8.3 315.58-9.4 315.58-11.4L315.58-11.4ZM342.73-30.55L332.53-30.55 332.53-38.9 342.73-38.9 342.73-30.55ZM332.18 11.8Q330.13 11.8 327.95 11.45 325.78 11.1 324.28 10.7L324.28 10.7 324.28 2.55Q326.63 2.9 328.48 2.9L328.48 2.9Q332.33 2.9 332.33-0.7L332.33-0.7 332.33-19.6 328.98-19.6 328.98-27.8 343.83-27.8 343.83-1.7Q343.83 5.15 340.93 8.47 338.03 11.8 332.18 11.8L332.18 11.8ZM358.37-30.55L348.17-30.55 348.17-38.9 358.37-38.9 358.37-30.55ZM347.82 11.8Q345.77 11.8 343.6 11.45 341.42 11.1 339.92 10.7L339.92 10.7 339.92 2.55Q342.27 2.9 344.12 2.9L344.12 2.9Q347.97 2.9 347.97-0.7L347.97-0.7 347.97-19.6 344.62-19.6 344.62-27.8 359.47-27.8 359.47-1.7Q359.47 5.15 356.57 8.47 353.67 11.8 347.82 11.8L347.82 11.8ZM392.37-8.2L394.57-8.2 394.57 0 380.87 0 380.87-3.9Q377.27 0.7 371.87 0.7L371.87 0.7Q367.72 0.7 365.65-1.9 363.57-4.5 363.57-9.05L363.57-9.05 363.57-19.6 361.37-19.6 361.37-27.8 375.07-27.8 375.07-11.4Q375.07-9.75 375.8-8.97 376.52-8.2 377.97-8.2L377.97-8.2Q379.42-8.2 380.15-8.97 380.87-9.75 380.87-11.4L380.87-11.4 380.87-19.6 378.17-19.6 378.17-27.8 392.37-27.8 392.37-8.2Z" opacity="1" transform="matrix(1,0,0,1,0,0)" fill="#c56e33" class="slogan-text-1" data-fill-palette-color="secondary" id="text-1"></path></svg></g></svg></g></svg></g></svg></g></svg></g></svg></g></svg></g><path d="M108.742 41.215L108.742 0 355.942 0 355.942 247.2 108.742 247.2 108.742 205.985 118.216 205.985 118.216 237.726 346.468 237.726 346.468 9.474 118.216 9.474 118.216 41.215Z" fill="#e6b17e" stroke="transparent" data-fill-palette-color="tertiary"></path></svg></g><defs></defs></svg><rect width="395.52" height="247.2" fill="none" stroke="none" visibility="hidden"></rect></g></svg></g></svg>